<svg width="24" height="24" viewBox="0 0 24 24" fill="none" xmlns="http://www.w3.org/2000/svg">
    <path fill-rule="evenodd" clip-rule="evenodd" d="M3.59961 12.0031C3.59961 11.5061 4.00255 11.1031 4.49961 11.1031L17.2651 11.1031L12.2758 6.35187C11.9175 6.00736 11.9063 5.43762 12.2509 5.07933C12.5954 4.72103 13.1651 4.70986 13.5234 5.05437L20.1234 11.3544C20.2999 11.5241 20.3996 11.7583 20.3996 12.0031C20.3996 12.2479 20.2999 12.4822 20.1234 12.6519L13.5234 18.9519C13.1651 19.2964 12.5954 19.2852 12.2509 18.9269C11.9063 18.5686 11.9175 17.9989 12.2758 17.6544L17.2651 12.9031L4.49961 12.9031C4.00255 12.9031 3.59961 12.5002 3.59961 12.0031Z" fill="white"/>
</svg>